<svg class="scatter-plot" viewbox="0 0 720 560" xmlns="http://www.w3.org/2000/svg">
<defs>
<style> .axis-line { stroke: var(--fg); stroke-width: 1.5; fill: none; } .tick-label { font-family: var(--body); font-size: 11px; fill: var(--fg2); } .tick-mark { stroke: var(--fg2); stroke-width: 1; fill: none; } .axis-title { font-family: var(--body); font-size: 13px; font-weight: 600; fill: var(--fg); } .curve { fill: none; stroke: var(--fg); stroke-width: 2; } .point-label { font-family: var(--body); font-size: 11px; fill: var(--fg); } .dot-orig { fill: #2a4d7a; fill-opacity: 0.25; stroke: #2a4d7a; stroke-width: 1.5; stroke-opacity: 0.95; } .dot-repl { fill: var(--fg); stroke: none; } .grid-line { stroke: var(--border); stroke-width: 0.5; stroke-dasharray: 2,3; } .leader { stroke: var(--fg2); stroke-width: 0.75; fill: none; opacity: 0.6; } .curve-label { font-family: var(--body); font-size: 10.5px; fill: var(--fg); font-style: italic; } .region-label-red { font-family: var(--body); font-size: 11.5px; font-weight: 600; fill: var(--red); } .region-label-teal { font-family: var(--body); font-size: 11.5px; font-weight: 600; fill: var(--teal); } .plot-title { font-family: var(--serif); font-size: 15px; font-weight: 600; fill: var(--fg); }
 .quad-cut { stroke: #888; stroke-width: 1.25; stroke-dasharray: 6,4; opacity: 0.7; fill: none; }
 .quad-label { font-family: var(--body); font-size: 10.5px; font-weight: 600; fill: var(--fg2); letter-spacing: 0.01em; opacity: 0.85; }
 .quad-label-sub { font-family: var(--body); font-size: 9.5px; font-weight: 400; fill: var(--fg3); letter-spacing: 0.01em; opacity: 0.75; }</style>
</defs> <text class="plot-title" text-anchor="middle" x="360" y="25">The
p &lt; 0.05 publication boundary</text> <g transform="translate(0,20)">
<path d="M 60 40 L 660 40 L 660 336.9 L 660.0 336.9 L 656.0 335.2 L 652.0 333.4 L 648.0 331.7 L 644.0 330.0 L 640.0 328.2 L 636.0 326.5 L 632.0 324.7 L 628.0 323.0 L 624.0 321.3 L 620.0 319.5 L 616.0 317.8 L 612.0 316.1 L 608.0 314.3 L 604.0 312.6 L 600.0 310.8 L 596.0 309.1 L 592.0 307.4 L 588.0 305.6 L 584.0 303.9 L 580.0 302.1 L 576.0 300.4 L 572.0 298.7 L 568.0 296.9 L 564.0 295.2 L 560.0 293.5 L 556.0 291.7 L 552.0 290.0 L 548.0 288.2 L 544.0 286.5 L 540.0 284.8 L 536.0 283.0 L 532.0 281.3 L 528.0 279.6 L 524.0 277.8 L 520.0 276.1 L 516.0 274.3 L 512.0 272.6 L 508.0 270.9 L 504.0 269.1 L 500.0 267.4 L 496.0 265.6 L 492.0 263.9 L 488.0 262.2 L 484.0 260.4 L 480.0 258.7 L 476.0 257.0 L 472.0 255.2 L 468.0 253.5 L 464.0 251.7 L 460.0 250.0 L 456.0 248.3 L 452.0 246.5 L 448.0 244.8 L 444.0 243.0 L 440.0 241.3 L 436.0 239.6 L 432.0 237.8 L 428.0 236.1 L 424.0 234.4 L 420.0 232.6 L 416.0 230.9 L 412.0 229.1 L 408.0 227.4 L 404.0 225.7 L 400.0 223.9 L 396.0 222.2 L 392.0 220.4 L 388.0 218.7 L 384.0 217.0 L 380.0 215.2 L 376.0 213.5 L 372.0 211.8 L 368.0 210.0 L 364.0 208.3 L 360.0 206.5 L 356.0 204.8 L 352.0 203.1 L 348.0 201.3 L 344.0 199.6 L 340.0 197.8 L 336.0 196.1 L 332.0 194.4 L 328.0 192.6 L 324.0 190.9 L 320.0 189.2 L 316.0 187.4 L 312.0 185.7 L 308.0 183.9 L 304.0 182.2 L 300.0 180.5 L 296.0 178.7 L 292.0 177.0 L 288.0 175.2 L 284.0 173.5 L 280.0 171.8 L 276.0 170.0 L 272.0 168.3 L 268.0 166.6 L 264.0 164.8 L 260.0 163.1 L 256.0 161.3 L 252.0 159.6 L 248.0 157.9 L 244.0 156.1 L 240.0 154.4 L 236.0 152.7 L 232.0 150.9 L 228.0 149.2 L 224.0 147.4 L 220.0 145.7 L 216.0 144.0 L 212.0 142.2 L 208.0 140.5 L 204.0 138.7 L 200.0 137.0 L 196.0 135.3 L 192.0 133.5 L 188.0 131.8 L 184.0 130.1 L 180.0 128.3 L 176.0 126.6 L 172.0 124.8 L 168.0 123.1 L 164.0 121.4 L 160.0 119.6 L 156.0 117.9 L 152.0 116.1 L 148.0 114.4 L 144.0 112.7 L 140.0 110.9 L 136.0 109.2 L 132.0 107.5 L 128.0 105.7 L 124.0 104.0 L 120.0 102.2 L 116.0 100.5 L 112.0 98.8 L 108.0 97.0 L 104.0 95.3 L 100.0 93.5 L 96.0 91.8 L 92.0 90.1 L 88.0 88.3 L 84.0 86.6 L 80.0 84.9 L 76.0 83.1 L 72.0 81.4 L 68.0 79.6 L 64.0 77.9 L 60.0 76.2 Z" fill="var(--tealBg)" opacity="0.6"></path>
<path d="M 60 440 L 60.0 76.2 L 64.0 77.9 L 68.0 79.6 L 72.0 81.4 L 76.0 83.1 L 80.0 84.9 L 84.0 86.6 L 88.0 88.3 L 92.0 90.1 L 96.0 91.8 L 100.0 93.5 L 104.0 95.3 L 108.0 97.0 L 112.0 98.8 L 116.0 100.5 L 120.0 102.2 L 124.0 104.0 L 128.0 105.7 L 132.0 107.5 L 136.0 109.2 L 140.0 110.9 L 144.0 112.7 L 148.0 114.4 L 152.0 116.1 L 156.0 117.9 L 160.0 119.6 L 164.0 121.4 L 168.0 123.1 L 172.0 124.8 L 176.0 126.6 L 180.0 128.3 L 184.0 130.1 L 188.0 131.8 L 192.0 133.5 L 196.0 135.3 L 200.0 137.0 L 204.0 138.7 L 208.0 140.5 L 212.0 142.2 L 216.0 144.0 L 220.0 145.7 L 224.0 147.4 L 228.0 149.2 L 232.0 150.9 L 236.0 152.7 L 240.0 154.4 L 244.0 156.1 L 248.0 157.9 L 252.0 159.6 L 256.0 161.3 L 260.0 163.1 L 264.0 164.8 L 268.0 166.6 L 272.0 168.3 L 276.0 170.0 L 280.0 171.8 L 284.0 173.5 L 288.0 175.2 L 292.0 177.0 L 296.0 178.7 L 300.0 180.5 L 304.0 182.2 L 308.0 183.9 L 312.0 185.7 L 316.0 187.4 L 320.0 189.2 L 324.0 190.9 L 328.0 192.6 L 332.0 194.4 L 336.0 196.1 L 340.0 197.8 L 344.0 199.6 L 348.0 201.3 L 352.0 203.1 L 356.0 204.8 L 360.0 206.5 L 364.0 208.3 L 368.0 210.0 L 372.0 211.8 L 376.0 213.5 L 380.0 215.2 L 384.0 217.0 L 388.0 218.7 L 392.0 220.4 L 396.0 222.2 L 400.0 223.9 L 404.0 225.7 L 408.0 227.4 L 412.0 229.1 L 416.0 230.9 L 420.0 232.6 L 424.0 234.4 L 428.0 236.1 L 432.0 237.8 L 436.0 239.6 L 440.0 241.3 L 444.0 243.0 L 448.0 244.8 L 452.0 246.5 L 456.0 248.3 L 460.0 250.0 L 464.0 251.7 L 468.0 253.5 L 472.0 255.2 L 476.0 257.0 L 480.0 258.7 L 484.0 260.4 L 488.0 262.2 L 492.0 263.9 L 496.0 265.6 L 500.0 267.4 L 504.0 269.1 L 508.0 270.9 L 512.0 272.6 L 516.0 274.3 L 520.0 276.1 L 524.0 277.8 L 528.0 279.6 L 532.0 281.3 L 536.0 283.0 L 540.0 284.8 L 544.0 286.5 L 548.0 288.2 L 552.0 290.0 L 556.0 291.7 L 560.0 293.5 L 564.0 295.2 L 568.0 296.9 L 572.0 298.7 L 576.0 300.4 L 580.0 302.1 L 584.0 303.9 L 588.0 305.6 L 592.0 307.4 L 596.0 309.1 L 600.0 310.8 L 604.0 312.6 L 608.0 314.3 L 612.0 316.1 L 616.0 317.8 L 620.0 319.5 L 624.0 321.3 L 628.0 323.0 L 632.0 324.7 L 636.0 326.5 L 640.0 328.2 L 644.0 330.0 L 648.0 331.7 L 652.0 333.4 L 656.0 335.2 L 660.0 336.9 L 660 440 Z" fill="var(--redBg)" opacity="0.5"></path>
<line class="grid-line" x1="460" x2="460" y1="40" y2="440"></line>
<line class="grid-line" x1="660" x2="660" y1="40" y2="440"></line>
<line class="grid-line" x1="60" x2="660" y1="266" y2="266"></line>
<line class="grid-line" x1="60" x2="660" y1="92" y2="92"></line>
<line class="quad-cut" x1="355" x2="355" y1="40" y2="440"></line>
<line class="quad-cut" x1="60" x2="660" y1="217" y2="217"></line>
<line class="axis-line" x1="60" x2="660" y1="440" y2="440"></line>
<line class="axis-line" x1="60" x2="60" y1="40" y2="440"></line>
<polygon fill="var(--fg)" points="660,440 652,436 652,444"></polygon>
<polygon fill="var(--fg)" points="60,40 56,48 64,48"></polygon>
<line class="tick-mark" x1="60" x2="60" y1="440" y2="444"></line>
<text class="tick-label" text-anchor="middle" x="60" y="458">10</text>
<line class="tick-mark" x1="260" x2="260" y1="440" y2="444"></line>
<text class="tick-label" text-anchor="middle" x="260" y="458">100</text>
<line class="tick-mark" x1="460" x2="460" y1="440" y2="444"></line>
<text class="tick-label" text-anchor="middle" x="460" y="458">1,000</text>
<line class="tick-mark" x1="660" x2="660" y1="440" y2="444"></line>
<text class="tick-label" text-anchor="middle" x="660" y="458">10K</text>
<line class="tick-mark" x1="56" x2="60" y1="40" y2="40"></line>
<text class="tick-label" text-anchor="end" x="52" y="43">2.0</text>
<line class="tick-mark" x1="56" x2="60" y1="92" y2="92"></line>
<text class="tick-label" text-anchor="end" x="52" y="95">1.0</text>
<line class="tick-mark" x1="56" x2="60" y1="145" y2="145"></line>
<text class="tick-label" text-anchor="end" x="52" y="148">0.5</text>
<line class="tick-mark" x1="56" x2="60" y1="214" y2="214"></line>
<text class="tick-label" text-anchor="end" x="52" y="217">0.2</text>
<line class="tick-mark" x1="56" x2="60" y1="266" y2="266"></line>
<text class="tick-label" text-anchor="end" x="52" y="269">0.1</text>
<line class="tick-mark" x1="56" x2="60" y1="318" y2="318"></line>
<text class="tick-label" text-anchor="end" x="52" y="321">0.05</text>
<line class="tick-mark" x1="56" x2="60" y1="388" y2="388"></line>
<text class="tick-label" text-anchor="end" x="52" y="391">0.02</text>
<line class="tick-mark" x1="56" x2="60" y1="440" y2="440"></line>
<text class="tick-label" text-anchor="end" x="52" y="443">0.01</text>
<text class="axis-title" text-anchor="middle" x="360" y="478">Sample
size (log scale)</text>
<text class="axis-title" text-anchor="middle" transform="rotate(-90 25 240)" x="25" y="240">Reported
effect size (Cohen's d, log scale)</text>
<path class="curve" d="M 60.0,76.2 L 64.0,77.9 L 68.0,79.6 L 72.0,81.4 L 76.0,83.1 L 80.0,84.9 L 84.0,86.6 L 88.0,88.3 L 92.0,90.1 L 96.0,91.8 L 100.0,93.5 L 104.0,95.3 L 108.0,97.0 L 112.0,98.8 L 116.0,100.5 L 120.0,102.2 L 124.0,104.0 L 128.0,105.7 L 132.0,107.5 L 136.0,109.2 L 140.0,110.9 L 144.0,112.7 L 148.0,114.4 L 152.0,116.1 L 156.0,117.9 L 160.0,119.6 L 164.0,121.4 L 168.0,123.1 L 172.0,124.8 L 176.0,126.6 L 180.0,128.3 L 184.0,130.1 L 188.0,131.8 L 192.0,133.5 L 196.0,135.3 L 200.0,137.0 L 204.0,138.7 L 208.0,140.5 L 212.0,142.2 L 216.0,144.0 L 220.0,145.7 L 224.0,147.4 L 228.0,149.2 L 232.0,150.9 L 236.0,152.7 L 240.0,154.4 L 244.0,156.1 L 248.0,157.9 L 252.0,159.6 L 256.0,161.3 L 260.0,163.1 L 264.0,164.8 L 268.0,166.6 L 272.0,168.3 L 276.0,170.0 L 280.0,171.8 L 284.0,173.5 L 288.0,175.2 L 292.0,177.0 L 296.0,178.7 L 300.0,180.5 L 304.0,182.2 L 308.0,183.9 L 312.0,185.7 L 316.0,187.4 L 320.0,189.2 L 324.0,190.9 L 328.0,192.6 L 332.0,194.4 L 336.0,196.1 L 340.0,197.8 L 344.0,199.6 L 348.0,201.3 L 352.0,203.1 L 356.0,204.8 L 360.0,206.5 L 364.0,208.3 L 368.0,210.0 L 372.0,211.8 L 376.0,213.5 L 380.0,215.2 L 384.0,217.0 L 388.0,218.7 L 392.0,220.4 L 396.0,222.2 L 400.0,223.9 L 404.0,225.7 L 408.0,227.4 L 412.0,229.1 L 416.0,230.9 L 420.0,232.6 L 424.0,234.4 L 428.0,236.1 L 432.0,237.8 L 436.0,239.6 L 440.0,241.3 L 444.0,243.0 L 448.0,244.8 L 452.0,246.5 L 456.0,248.3 L 460.0,250.0 L 464.0,251.7 L 468.0,253.5 L 472.0,255.2 L 476.0,257.0 L 480.0,258.7 L 484.0,260.4 L 488.0,262.2 L 492.0,263.9 L 496.0,265.6 L 500.0,267.4 L 504.0,269.1 L 508.0,270.9 L 512.0,272.6 L 516.0,274.3 L 520.0,276.1 L 524.0,277.8 L 528.0,279.6 L 532.0,281.3 L 536.0,283.0 L 540.0,284.8 L 544.0,286.5 L 548.0,288.2 L 552.0,290.0 L 556.0,291.7 L 560.0,293.5 L 564.0,295.2 L 568.0,296.9 L 572.0,298.7 L 576.0,300.4 L 580.0,302.1 L 584.0,303.9 L 588.0,305.6 L 592.0,307.4 L 596.0,309.1 L 600.0,310.8 L 604.0,312.6 L 608.0,314.3 L 612.0,316.1 L 616.0,317.8 L 620.0,319.5 L 624.0,321.3 L 628.0,323.0 L 632.0,324.7 L 636.0,326.5 L 640.0,328.2 L 644.0,330.0 L 648.0,331.7 L 652.0,333.4 L 656.0,335.2 L 660.0,336.9"></path>
<line class="leader" x1="183" x2="130" y1="123" y2="112"></line>
<line class="leader" x1="185" x2="130" y1="123" y2="148"></line>
<line class="leader" x1="185" x2="250" y1="126" y2="105"></line>
<line class="leader" x1="196" x2="265" y1="131" y2="165"></line>
<circle class="dot-orig" cx="146" cy="87" r="4.5"></circle>
<circle class="dot-orig" cx="245" cy="131" r="4.5"></circle>
<circle class="dot-orig" cx="183" cy="123" r="4.5"></circle>
<circle class="dot-orig" cx="185" cy="123" r="4.5"></circle>
<circle class="dot-orig" cx="185" cy="126" r="4.5"></circle>
<circle class="dot-orig" cx="196" cy="131" r="4.5"></circle>
<text class="point-label" text-anchor="start" x="154" y="90">red
shirt</text>
<text class="point-label" text-anchor="start" x="253" y="134">dim
lamp</text>
<text class="point-label" text-anchor="end" x="127" y="115">warm
coffee</text>
<text class="point-label" text-anchor="end" x="127" y="151">fishy
smell</text>
<text class="point-label" text-anchor="start" x="253" y="108">power
pose</text>
<text class="point-label" text-anchor="start" x="268" y="168">feet on
desk</text> <circle class="dot-orig" cx="210" cy="510" r="4.5"></circle>
<text class="point-label" x="222" y="514">findings from the scenario
above, as published</text>
<text class="region-label-teal" dominant-baseline="central" text-anchor="middle" transform="rotate(23 540 275)" x="540" y="275">Effect sizes that do get published ↗</text>
<text class="region-label-red" dominant-baseline="central" text-anchor="middle" transform="rotate(23 540 295)" x="540" y="295">↙ Effect sizes that don’t get published</text>
<text class="quad-label" text-anchor="start" x="70" y="55">Unlikely effects + weak evidence</text>
<text class="quad-label" text-anchor="end" x="650" y="55">Unlikely effects + strong evidence</text>
<text class="quad-label" text-anchor="start" x="70" y="432">Common effects + weak evidence</text>
<text class="quad-label" text-anchor="end" x="650" y="432">Common effects + strong evidence</text>
<text class="curve-label" text-anchor="end" x="655" y="150">p &lt; 0.05 boundary (two-sample t-test)</text>
</g>
</svg>